<?xml version="1.0" encoding="utf-8"?>
<!-- Generator: Adobe Illustrator 21.0.0, SVG Export Plug-In . SVG Version: 6.00 Build 0)  -->
<svg version="1.1" id="Layer_1" xmlns="http://www.w3.org/2000/svg" xmlns:xlink="http://www.w3.org/1999/xlink" x="0px" y="0px"
	 width="200px" height="200px" viewBox="0 0 200 200" style="enable-background:new 0 0 200 200;" xml:space="preserve">
<style type="text/css">
	.st0{fill:#7CB342;}
</style>
<g>
	<path d="M188,100c0-48.4-39.6-88-88-88s-88,39.6-88,88s39.4,88,88,88c7.3,0,14.5-0.7,21.5-2.8c-2.8-1.5-5-3.7-5.9-6.8
		c-1.3-3.1-1.1-6.4,0.4-9.4c0.2-0.2,0.2-0.4,0.4-0.7c-5.3,1.3-10.6,1.8-16.3,1.8c-38.9,0.2-70.4-31.4-70.4-70.2S61.1,29.6,100,29.6
		s70.4,31.5,70.4,70.4c0,16.1-5.5,31.3-14.7,43.1l-20.2-20.2c4-6.6,6.6-14.5,6.6-22.9c0-8.3-2.2-15.8-6.4-22.4l-11.9,16.5
		c0.4,1.8,0.5,3.7,0.5,5.7c0,13.6-11,24.6-24.6,24.6s-24.6-11-24.6-24.6s11-24.6,24.6-24.6c8.3,0,15.6,4,20,10.5L132.1,73
		c-7.7-9.2-19.4-15.2-32.3-15.2c-23.3,0-42.2,19.1-42.2,42.2c0,23.3,19.1,42.2,42.2,42.2c8.4,0,16.3-2.4,22.9-6.8l20.2,20.2l0,0
		l6.6,6.6l0,0l0.2,0.2l0,0c3.5,3.1,8.8,3.1,12.1-0.2c0.2-0.2,0.4-0.4,0.6-0.6C178.3,145.7,188,124,188,100z"/>
	<g>
		<path class="st0" d="M127,165.6c-1.1,0-1.8,0.2-2.9,0.4h-0.2c0,0,0,0-0.2,0c-4.6,1.7-6.8,6.8-5.1,11.2c1.3,3.5,4.8,5.7,8.3,5.7
			c1.1,0,2-0.2,3.1-0.6c4.6-1.6,7-6.8,5.3-11.2C133.9,167.8,130.6,165.6,127,165.6z"/>
		<path class="st0" d="M140.5,58.9c-0.6,0-1.3,0.4-1.5,0.7L100,100l-8.6-10.3c-0.5-0.7-1.7-1.5-2.9-1.5c-2,0-3.5,1.7-3.5,3.5
			c0,0.5,0.2,1.1,0.4,1.5l9.9,19.8c0.7,1.8,2.8,3.1,4.8,3.1c1.8,0,3.3-0.7,4.2-2.2l37.6-52.6c0.2-0.2,0.2-0.5,0.2-0.7
			C142.2,59.7,141.3,58.9,140.5,58.9z"/>
	</g>
</g>
</svg>
