<?xml version="1.0" encoding="utf-8"?>
<!-- Generator: Adobe Illustrator 21.0.0, SVG Export Plug-In . SVG Version: 6.00 Build 0)  -->
<svg version="1.1" id="Layer_1" xmlns="http://www.w3.org/2000/svg" xmlns:xlink="http://www.w3.org/1999/xlink" x="0px" y="0px"
	 width="867.6px" height="201.3px" viewBox="0 0 867.6 201.3" style="enable-background:new 0 0 867.6 201.3;" xml:space="preserve"
	>
<style type="text/css">
	.st0{display:none;fill:#F2F2F2;}
	.st1{fill:#7CB342;}
	.st2{fill:#FFFFFF;}
	.st3{fill:#F7F7F7;}
	.st4{fill:none;stroke:#CCCCCC;stroke-width:0.5;stroke-miterlimit:10;}
	.st5{fill:#4D4D4D;}
	.st6{fill:#AAAAAA;}
</style>
<g>
	<g>
		<path class="st2" d="M100.7,193.5l-8.9-24.4v0c0.1,0,0.2-0.1,0.3-0.1c1.4-0.4,2.7-0.7,4.1-0.7c5.3,0,10.3,3.3,12.2,8.5
			C110.9,183.6,107.4,191.1,100.7,193.5z"/>
	</g>
	<g>
		<path d="M201.3,100.7C201.3,45.2,156.2,0,100.7,0C45.2,0,0,45.2,0,100.7c0,55.5,45.2,100.7,100.7,100.7c8.5,0,16.7-1,24.5-3
			c-3.1-1.6-5.5-4.3-6.8-7.7c-1.3-3.5-1.1-7.4,0.5-10.8c0.1-0.3,0.3-0.6,0.4-0.8c-6,1.4-12.2,2.2-18.6,2.2
			c-44.4,0-80.5-36.1-80.5-80.5c0-44.4,36.1-80.5,80.5-80.5s80.5,36.1,80.5,80.5c0,18.6-6.3,35.7-16.9,49.3l-23.1-23.1
			c4.9-7.6,7.8-16.6,7.8-26.3c0-9.4-2.7-18.1-7.3-25.5l-13.6,18.9c0.5,2.1,0.8,4.3,0.8,6.6c0,15.6-12.6,28.2-28.2,28.2
			c-15.6,0-28.2-12.6-28.2-28.2c0-15.6,12.6-28.2,28.2-28.2c9.5,0,17.9,4.7,23,11.8l14.1-14.6c-8.9-10.6-22.2-17.4-37.1-17.4
			C74,52.4,52.4,74,52.4,100.7c0,26.6,21.7,48.3,48.3,48.3c9.7,0,18.7-2.9,26.3-7.8l23.1,23.1c0,0,0,0,0,0l7.6,7.6h0l0.4,0.4l0,0
			c4,3.6,10.1,3.5,13.9-0.3c0.3-0.3,0.5-0.5,0.7-0.8C190.3,152.9,201.3,128,201.3,100.7z"/>
		<g>
			<path class="st1" d="M131.6,175.7c-1.1,0-2.1,0.2-3.2,0.5c-0.1,0-0.2,0.1-0.3,0.1c0,0-0.1,0-0.1,0.1c-5.1,2-7.8,7.7-5.9,12.9
				c1.5,4.1,5.3,6.6,9.5,6.6c1.1,0,2.3-0.2,3.4-0.6c5.2-1.9,7.9-7.7,6-12.9C139.6,178.3,135.8,175.7,131.6,175.7z"/>
			<path class="st1" d="M146.9,53.7c-0.7,0-1.4,0.4-1.7,1l-44.5,46L90.9,89c-0.7-1-1.9-1.7-3.3-1.7c-2.2,0-4,1.8-4,4
				c0,0.6,0.1,1.2,0.4,1.7l11.3,22.7c1,2,3.1,3.4,5.5,3.4c2,0,3.8-1,4.9-2.5l43.1-60.1c0.2-0.3,0.2-0.6,0.2-1
				C148.9,54.6,148,53.7,146.9,53.7z"/>
		</g>
	</g>
	<g>
		<g>
			<rect x="225.8" class="st1" width="222.3" height="55.9"/>
		</g>
		<g>
			<path class="st2" d="M252.7,31.6V14.4h4.9v17.9c0,1.9,0.5,3.3,1.5,4.3c1,1,2.4,1.4,4.3,1.4c1.9,0,3.4-0.5,4.3-1.4
				c0.9-0.9,1.4-2.4,1.4-4.3V14.4h4.9v17.2c0,3.4-0.9,5.9-2.6,7.5c-1.7,1.6-4.4,2.4-8,2.4C256.2,41.5,252.7,38.2,252.7,31.6z"/>
			<path class="st2" d="M295.8,37.7v3.5h-15.8V14.4h4.9v23.3H295.8z"/>
			<path class="st2" d="M312.6,15.8c0,0.7-0.1,1.3-0.4,1.6c-0.3,0.3-0.7,0.5-1.2,0.5h-5.7v23.2h-4.8V17.9h-7.2v-3.6h19.3
				C312.5,14.9,312.6,15.4,312.6,15.8z"/>
			<path class="st2" d="M317.3,14.4h4.8v26.8h-4.8V14.4z"/>
			<path class="st2" d="M351.4,41.2c-0.1-4.6-0.2-8.5-0.5-11.8c-0.3-3.3-0.7-6.4-1.2-9.6c-1,2.6-1.8,5.1-2.6,7.4
				c-0.7,2.3-1.7,5.7-2.9,10.2h-3.8c-1-4.1-1.9-7.4-2.7-9.8c-0.7-2.4-1.6-5-2.7-7.8c-0.5,3.1-0.9,6.3-1.2,9.6
				c-0.3,3.3-0.5,7.2-0.6,11.8h-4.8c0.1-5.4,0.4-10.2,0.9-14.5c0.5-4.2,1.3-8.3,2.4-12.3h5.4c1.4,3.3,2.4,5.9,3,8
				c0.7,2,1.3,4.3,1.9,6.8c0.6-2.5,1.3-4.7,2-6.7c0.7-2,1.7-4.7,3.1-8.1h5.4c1.1,4,2,8.1,2.5,12.4c0.5,4.3,0.8,9.1,0.9,14.4H351.4z"
				/>
			<path class="st2" d="M376.6,34.2h-11.4c-0.5,2.4-1,4.7-1.3,7h-4.8c0.8-4.9,1.9-9.5,3.4-13.9c1.5-4.4,3.5-8.7,5.9-12.8h4.9
				c2.4,4.1,4.4,8.4,5.9,12.8c1.5,4.4,2.7,9.1,3.4,14h-4.8C377.5,38.9,377.1,36.6,376.6,34.2z M375.7,30.6
				c-1.2-4.4-2.8-8.5-4.8-12.4c-2,3.9-3.6,8-4.8,12.4H375.7z"/>
			<path class="st2" d="M401.3,15.8c0,0.7-0.1,1.3-0.4,1.6c-0.3,0.3-0.7,0.5-1.2,0.5H394v23.2h-4.8V17.9h-7.2v-3.6h19.3
				C401.3,14.9,401.3,15.4,401.3,15.8z"/>
			<path class="st2" d="M421.3,37.7c0,1.4-0.1,2.3-0.4,2.8c-0.3,0.5-0.8,0.7-1.6,0.7h-14.8V14.4H421v3.5h-11.7v7.8h9.8v3.4h-9.8v8.6
				H421.3z"/>
		</g>
		<g>
			<path d="M266.2,132.6c0,3.7-0.3,6.2-1,7.5c-0.7,1.3-1.9,2-3.7,2h-35.7v-63h39.4v9.5h-25.6v16.2h21.2v9.5h-21.2v18.2H266.2z"/>
			<path d="M341.9,95.9c2.7,2.8,4.1,6.6,4.1,11.6v34.7h-13.4v-34.4c0-2.9-0.4-4.9-1.2-6c-0.8-1-2.4-1.6-4.6-1.6
				c-3.4,0-6.3,1.5-8.6,4.5v1.1v36.4h-13.3v-35.3c0-2.5-0.3-4.3-1-5.2c-0.7-1-2-1.4-3.8-1.4c-3.2,0-6.5,2-9.8,5.9v36.1h-13.3v-31.8
				c0-8.5-0.4-13.8-1.1-15.8c1.1-0.7,2.6-1.2,4.3-1.7c1.7-0.5,3.3-0.7,4.8-0.7c1.6,0,2.8,0.5,3.6,1.4c0.8,0.9,1.3,2.5,1.6,4.7
				c2.2-2.3,4.4-4,6.8-5.1c2.3-1,5-1.6,7.8-1.6c2.8,0,5.2,0.6,7.2,1.7c2,1.1,3.6,2.7,4.7,4.8c3.4-4.3,8.1-6.5,14.2-6.5
				C335.4,91.7,339.2,93.1,341.9,95.9z"/>
			<path d="M398.5,134.1c0.4,2.2,1.2,4,2.4,5.6c-1.3,0.9-2.9,1.6-4.9,2.2c-2,0.6-3.8,0.9-5.4,0.9c-1.5,0-2.7-0.5-3.6-1.6
				c-0.9-1.1-1.6-2.8-2-5.1c-1.6,2.5-3.5,4.3-5.8,5.4c-2.2,1.1-5.1,1.6-8.6,1.6c-4.4,0-7.9-1.2-10.6-3.6c-2.7-2.4-4.1-5.5-4.1-9.3
				c0-5.4,2.3-9.4,6.8-12.1c4.5-2.7,11.8-4.3,21.8-4.8v-4.7c0-2.5-0.6-4.3-1.9-5.5c-1.3-1.2-3.3-1.8-5.9-1.8c-1.9,0-3.8,0.4-5.7,1.1
				c-1.9,0.8-4.2,2.1-7,3.9c-0.3,0.2-0.7,0.4-1.3,0.4c-1.1,0-2.2-0.7-3.5-2.2c-1.2-1.4-2.3-3.3-3.3-5.7c2.3-2,5.6-3.7,9.9-5.1
				c4.2-1.3,8.4-2,12.6-2c6.2,0,11,1.5,14.4,4.4c3.4,2.9,5,7.1,5,12.5v14.9C397.9,128.4,398.1,132,398.5,134.1z M380.3,132.5
				c1.5-1.3,3-3.2,4.3-5.9V120c-5,0.2-8.7,1-11.3,2.5c-2.6,1.5-3.8,3.6-3.8,6.3c0,1.7,0.5,3.1,1.6,4.1c1.1,1,2.5,1.5,4.2,1.5
				C377.2,134.4,378.8,133.8,380.3,132.5z"/>
			<path d="M408.8,76.5v-1.3c0-4.7,2.3-7,7-7h1.3c4.7,0,7,2.3,7,7v1.3c0,4.7-2.3,7-7,7h-1.3C411.2,83.5,408.8,81.2,408.8,76.5z
				 M409.8,92.6h13.3v49.5h-13.3V92.6z"/>
			<path d="M434.9,70.9h13.3v71.2h-13.3V70.9z"/>
			<path d="M532.4,79.1c-1.1,12.4-3.4,23.8-6.8,34.1c-3.4,10.3-8.1,20-14,28.9h-12.2c-5.8-8.8-10.4-18.4-13.9-28.7
				c-3.4-10.3-5.8-21.7-7-34.3h14.2c1.1,10.2,2.7,19.4,4.9,27.7c2.2,8.3,4.8,15.3,7.8,21c3.1-5.7,5.7-12.7,7.8-21
				c2.2-8.3,3.8-17.5,4.9-27.7H532.4z"/>
			<path d="M580.4,134.1c0.4,2.2,1.2,4,2.4,5.6c-1.3,0.9-2.9,1.6-4.9,2.2c-2,0.6-3.8,0.9-5.4,0.9c-1.5,0-2.7-0.5-3.6-1.6
				c-0.9-1.1-1.6-2.8-2-5.1c-1.6,2.5-3.5,4.3-5.8,5.4c-2.2,1.1-5.1,1.6-8.6,1.6c-4.4,0-7.9-1.2-10.6-3.6c-2.7-2.4-4.1-5.5-4.1-9.3
				c0-5.4,2.3-9.4,6.8-12.1c4.5-2.7,11.8-4.3,21.8-4.8v-4.7c0-2.5-0.6-4.3-1.9-5.5c-1.3-1.2-3.3-1.8-5.9-1.8c-1.9,0-3.8,0.4-5.7,1.1
				c-1.9,0.8-4.2,2.1-7,3.9c-0.3,0.2-0.7,0.4-1.3,0.4c-1.1,0-2.2-0.7-3.5-2.2c-1.2-1.4-2.3-3.3-3.3-5.7c2.3-2,5.6-3.7,9.9-5.1
				c4.2-1.3,8.4-2,12.6-2c6.2,0,11,1.5,14.4,4.4c3.4,2.9,5,7.1,5,12.5v14.9C579.8,128.4,580,132,580.4,134.1z M562.2,132.5
				c1.5-1.3,3-3.2,4.3-5.9V120c-5,0.2-8.7,1-11.3,2.5c-2.6,1.5-3.8,3.6-3.8,6.3c0,1.7,0.5,3.1,1.6,4.1c1.1,1,2.5,1.5,4.2,1.5
				C559,134.4,560.7,133.8,562.2,132.5z"/>
			<path d="M590.8,70.9h13.3v71.2h-13.3V70.9z"/>
			<path d="M614.8,76.5v-1.3c0-4.7,2.3-7,7-7h1.3c4.7,0,7,2.3,7,7v1.3c0,4.7-2.3,7-7,7h-1.3C617.1,83.5,614.8,81.2,614.8,76.5z
				 M615.8,92.6h13.3v49.5h-13.3V92.6z"/>
			<path d="M684.3,134.1c0.4,2.2,1.2,4.1,2.4,5.6c-1.7,1-3.5,1.7-5.4,2.3c-1.9,0.5-3.7,0.8-5.4,0.8c-1.4,0-2.5-0.5-3.3-1.5
				c-0.8-1-1.4-2.6-1.8-4.8c-1.4,2.2-3.2,3.8-5.3,4.9c-2.2,1.1-4.6,1.7-7.4,1.7c-6.4,0-11.3-2.2-14.8-6.7
				c-3.5-4.5-5.3-10.7-5.3-18.8c0-5.2,0.9-9.8,2.8-13.7c1.9-3.9,4.5-6.9,7.9-9c3.4-2.1,7.4-3.2,12-3.2c3.6,0,6.8,0.8,9.6,2.3V70.9
				h13.3v52.6C683.8,128.4,684,131.9,684.3,134.1z M670.4,127.5v-24.6c-2.1-1.8-4.8-2.7-8.2-2.7c-3.4,0-6,1.5-7.8,4.5
				c-1.9,3-2.8,7.3-2.8,12.8c0,5.8,0.7,10,2.2,12.7c1.4,2.7,3.7,4.1,6.7,4.1C664.6,134.4,668,132.1,670.4,127.5z"/>
			<path d="M735.4,134.1c0.4,2.2,1.2,4,2.4,5.6c-1.3,0.9-2.9,1.6-4.9,2.2c-2,0.6-3.8,0.9-5.4,0.9c-1.5,0-2.7-0.5-3.6-1.6
				c-0.9-1.1-1.6-2.8-2-5.1c-1.6,2.5-3.5,4.3-5.8,5.4c-2.2,1.1-5.1,1.6-8.6,1.6c-4.4,0-7.9-1.2-10.6-3.6c-2.7-2.4-4.1-5.5-4.1-9.3
				c0-5.4,2.3-9.4,6.8-12.1c4.5-2.7,11.8-4.3,21.8-4.8v-4.7c0-2.5-0.6-4.3-1.9-5.5c-1.3-1.2-3.3-1.8-5.9-1.8c-1.9,0-3.8,0.4-5.7,1.1
				c-1.9,0.8-4.2,2.1-7,3.9c-0.3,0.2-0.7,0.4-1.3,0.4c-1.1,0-2.2-0.7-3.5-2.2c-1.2-1.4-2.3-3.3-3.3-5.7c2.3-2,5.6-3.7,9.9-5.1
				c4.2-1.3,8.4-2,12.6-2c6.2,0,11,1.5,14.4,4.4c3.4,2.9,5,7.1,5,12.5v14.9C734.8,128.4,735,132,735.4,134.1z M717.2,132.5
				c1.5-1.3,3-3.2,4.3-5.9V120c-5,0.2-8.7,1-11.3,2.5c-2.6,1.5-3.8,3.6-3.8,6.3c0,1.7,0.5,3.1,1.6,4.1c1.1,1,2.5,1.5,4.2,1.5
				C714,134.4,715.7,133.8,717.2,132.5z"/>
			<path d="M775.4,134.6c0.4,0.6,0.5,1.3,0.5,2.2c0,1.3-0.4,2.3-1.2,3.1c-1,1-2.5,1.7-4.7,2.3c-2.2,0.6-4.6,0.9-7.2,0.9
				c-4.1,0-7.5-1.2-10-3.5c-2.5-2.3-3.8-5.4-3.8-9.2v-29.3h-7.6v-8.5h7.6V79.1h13.3v13.5h9.4v8.5h-9.4v28.1c0,2.1,0.3,3.6,1,4.5
				c0.7,0.9,1.9,1.3,3.6,1.3c1.9,0,4.2-0.5,6.8-1.5C774.5,133.6,775,134,775.4,134.6z"/>
			<path d="M785.5,136.3c-4-4.5-6-10.8-6-19c0-8.2,2-14.5,6-18.9c4-4.4,9.6-6.7,16.9-6.7c7.3,0,12.9,2.2,16.9,6.7
				c4,4.4,6,10.7,6,18.9c0,8.2-2,14.5-6,19c-4,4.5-9.6,6.8-16.9,6.8C795.1,143,789.5,140.8,785.5,136.3z M809.6,130.4
				c1.5-2.7,2.2-7.1,2.2-13.1c0-5.9-0.7-10.2-2.2-12.9c-1.5-2.7-3.9-4-7.2-4c-3.3,0-5.7,1.3-7.2,4c-1.5,2.6-2.2,7-2.2,13
				c0,6,0.7,10.4,2.2,13.1c1.5,2.7,3.9,4.1,7.2,4.1C805.7,134.4,808.1,133.1,809.6,130.4z"/>
			<path d="M864.5,93.8c1.3,1.2,2,3.2,2,5.9c0,1-0.1,2-0.4,3c-0.3,1-0.6,1.8-1.1,2.3c-0.7-0.4-1.5-0.7-2.4-0.9
				c-0.9-0.2-2.2-0.3-3.9-0.3c-3.9,0-6.8,1.2-8.7,3.6s-2.8,6.1-2.8,11v23.7h-13.3V92.6h13.3v6.6c1.2-2.3,2.8-4.1,4.7-5.4
				c1.9-1.2,4.1-1.8,6.4-1.8C861.1,92,863.2,92.6,864.5,93.8z"/>
		</g>
	</g>
	<g>
		<path class="st6" d="M226.2,176.5c-0.3-0.3-0.4-0.6-0.4-1v-17.3c0-0.4,0.1-0.8,0.4-1c0.3-0.3,0.6-0.4,1.1-0.4h5.6
			c3.3,0,5.8,0.9,7.6,2.6c1.8,1.8,2.7,4.2,2.7,7.4c0,3.2-0.9,5.7-2.7,7.4c-1.8,1.8-4.3,2.6-7.6,2.6h-5.6
			C226.8,176.8,226.5,176.7,226.2,176.5z M232.7,174.4c4.9,0,7.4-2.5,7.4-7.6c0-5.1-2.5-7.6-7.4-7.6h-3.9v15.2H232.7z"/>
		<path class="st6" d="M246.9,159.4c-0.3-0.3-0.5-0.7-0.5-1.2s0.2-0.9,0.5-1.2c0.3-0.3,0.8-0.4,1.3-0.4c0.5,0,1,0.1,1.3,0.4
			c0.3,0.3,0.5,0.7,0.5,1.2s-0.2,0.9-0.5,1.2c-0.3,0.3-0.8,0.5-1.3,0.5C247.7,159.8,247.2,159.7,246.9,159.4z M247.2,176.6
			c-0.3-0.2-0.4-0.6-0.4-1V164c0-0.5,0.1-0.8,0.4-1c0.3-0.2,0.6-0.4,1-0.4c0.4,0,0.8,0.1,1,0.4c0.3,0.2,0.4,0.6,0.4,1v11.6
			c0,0.5-0.1,0.8-0.4,1c-0.3,0.2-0.6,0.3-1,0.3C247.8,177,247.5,176.9,247.2,176.6z"/>
		<path class="st6" d="M253.8,175.8c-0.3-0.2-0.6-0.4-0.7-0.7c-0.1-0.2-0.2-0.5-0.2-0.8c0-0.3,0.1-0.6,0.3-0.8
			c0.2-0.2,0.4-0.3,0.7-0.3c0.2,0,0.6,0.2,1.2,0.5c0.6,0.3,1.1,0.6,1.7,0.7c0.5,0.2,1.2,0.3,2,0.3c0.9,0,1.6-0.2,2.1-0.5
			c0.5-0.3,0.8-0.8,0.8-1.4c0-0.4-0.1-0.7-0.3-0.9c-0.2-0.2-0.5-0.4-1-0.6c-0.5-0.2-1.2-0.4-2.2-0.6c-1.7-0.4-2.9-0.9-3.6-1.5
			c-0.7-0.6-1.1-1.5-1.1-2.5c0-0.8,0.2-1.6,0.7-2.2c0.5-0.7,1.1-1.2,2-1.5c0.8-0.4,1.8-0.5,2.9-0.5c0.8,0,1.5,0.1,2.2,0.3
			c0.7,0.2,1.4,0.5,1.9,0.9c0.6,0.4,0.9,0.9,0.9,1.5c0,0.3-0.1,0.6-0.3,0.8c-0.2,0.2-0.4,0.3-0.6,0.3c-0.2,0-0.3,0-0.5-0.1
			c-0.2-0.1-0.4-0.2-0.7-0.4c-0.5-0.3-1-0.5-1.4-0.7c-0.4-0.2-1-0.3-1.7-0.3c-0.8,0-1.4,0.2-1.9,0.5c-0.5,0.3-0.7,0.8-0.7,1.4
			c0,0.5,0.2,0.9,0.7,1.2c0.4,0.3,1.3,0.6,2.5,0.8c1.3,0.3,2.3,0.6,3,0.9c0.7,0.3,1.2,0.8,1.6,1.3c0.3,0.5,0.5,1.1,0.5,1.9
			c0,1.2-0.5,2.2-1.6,3c-1,0.8-2.4,1.1-4.2,1.1C256.6,177,255,176.6,253.8,175.8z"/>
		<path class="st6" d="M278.1,163.5c0.9,0.6,1.7,1.5,2.2,2.6c0.5,1.1,0.8,2.4,0.8,3.8c0,1.4-0.3,2.7-0.8,3.8
			c-0.5,1.1-1.2,1.9-2.2,2.5c-0.9,0.6-2,0.9-3.2,0.9c-1,0-2-0.2-2.8-0.7c-0.8-0.4-1.4-1.1-1.8-1.9v6.4c0,0.4-0.1,0.7-0.4,1
			s-0.6,0.4-1,0.4c-0.4,0-0.8-0.1-1.1-0.4c-0.3-0.2-0.4-0.6-0.4-1V164c0-0.4,0.1-0.8,0.4-1c0.3-0.3,0.6-0.4,1.1-0.4
			c0.4,0,0.8,0.1,1,0.4c0.3,0.3,0.4,0.6,0.4,1v1.2c0.4-0.8,1-1.5,1.8-1.9c0.8-0.5,1.7-0.7,2.8-0.7
			C276.1,162.6,277.2,162.9,278.1,163.5z M277.2,173.5c0.7-0.8,1-2.1,1-3.6c0-1.6-0.3-2.8-1-3.7c-0.7-0.9-1.7-1.3-2.9-1.3
			c-1.3,0-2.2,0.4-2.9,1.3c-0.7,0.9-1,2.1-1,3.7c0,1.6,0.3,2.8,1,3.7c0.7,0.9,1.6,1.3,2.9,1.3C275.5,174.8,276.5,174.3,277.2,173.5z
			"/>
		<path class="st6" d="M286.8,176.2c-1-0.6-1.8-1.4-2.4-2.5s-0.8-2.4-0.8-3.8c0-1.5,0.3-2.7,0.8-3.8s1.4-1.9,2.4-2.5
			c1-0.6,2.2-0.9,3.6-0.9s2.6,0.3,3.6,0.9s1.8,1.4,2.4,2.5c0.6,1.1,0.8,2.4,0.8,3.8c0,1.4-0.3,2.7-0.8,3.8c-0.6,1.1-1.4,1.9-2.4,2.5
			c-1,0.6-2.2,0.9-3.6,0.9S287.8,176.7,286.8,176.2z M293.3,173.5c0.7-0.8,1-2.1,1-3.7c0-1.6-0.3-2.8-1-3.7
			c-0.7-0.8-1.7-1.3-2.9-1.3c-1.3,0-2.2,0.4-2.9,1.3c-0.7,0.8-1,2.1-1,3.7c0,1.6,0.3,2.8,1,3.7c0.7,0.8,1.7,1.3,2.9,1.3
			C291.7,174.8,292.6,174.3,293.3,173.5z"/>
		<path class="st6" d="M300.5,175.8c-0.3-0.2-0.6-0.4-0.7-0.7c-0.1-0.2-0.2-0.5-0.2-0.8c0-0.3,0.1-0.6,0.3-0.8
			c0.2-0.2,0.4-0.3,0.7-0.3c0.2,0,0.6,0.2,1.2,0.5c0.6,0.3,1.1,0.6,1.7,0.7c0.5,0.2,1.2,0.3,2,0.3c0.9,0,1.6-0.2,2.1-0.5
			c0.5-0.3,0.8-0.8,0.8-1.4c0-0.4-0.1-0.7-0.3-0.9c-0.2-0.2-0.5-0.4-1-0.6c-0.5-0.2-1.2-0.4-2.2-0.6c-1.7-0.4-2.9-0.9-3.6-1.5
			c-0.7-0.6-1.1-1.5-1.1-2.5c0-0.8,0.2-1.6,0.7-2.2c0.5-0.7,1.1-1.2,2-1.5c0.8-0.4,1.8-0.5,2.9-0.5c0.8,0,1.5,0.1,2.2,0.3
			c0.7,0.2,1.4,0.5,1.9,0.9c0.6,0.4,0.9,0.9,0.9,1.5c0,0.3-0.1,0.6-0.3,0.8c-0.2,0.2-0.4,0.3-0.6,0.3c-0.2,0-0.3,0-0.5-0.1
			c-0.2-0.1-0.4-0.2-0.7-0.4c-0.5-0.3-1-0.5-1.4-0.7c-0.4-0.2-1-0.3-1.7-0.3c-0.8,0-1.4,0.2-1.9,0.5c-0.5,0.3-0.7,0.8-0.7,1.4
			c0,0.5,0.2,0.9,0.7,1.2c0.4,0.3,1.3,0.6,2.5,0.8c1.3,0.3,2.3,0.6,3,0.9c0.7,0.3,1.2,0.8,1.6,1.3c0.3,0.5,0.5,1.1,0.5,1.9
			c0,1.2-0.5,2.2-1.6,3c-1,0.8-2.4,1.1-4.2,1.1C303.3,177,301.7,176.6,300.5,175.8z"/>
		<path class="st6" d="M324.2,164c0.9,0.9,1.4,2.4,1.4,4.3v7.4c0,0.4-0.1,0.8-0.4,1c-0.2,0.2-0.6,0.4-1,0.4c-0.4,0-0.8-0.1-1-0.4
			c-0.2-0.2-0.4-0.6-0.4-1v-1.1c-0.4,0.8-0.9,1.4-1.6,1.8c-0.7,0.4-1.5,0.6-2.5,0.6c-0.9,0-1.8-0.2-2.5-0.6
			c-0.8-0.4-1.4-0.9-1.8-1.6c-0.4-0.7-0.6-1.4-0.6-2.2c0-1,0.3-1.8,0.8-2.4c0.5-0.6,1.4-1,2.6-1.2c1.2-0.2,2.9-0.4,5-0.4h0.7v-0.8
			c0-1.1-0.2-1.8-0.7-2.3s-1.1-0.7-2.1-0.7c-0.7,0-1.3,0.1-1.9,0.3c-0.6,0.2-1.2,0.4-1.9,0.7c-0.5,0.3-0.9,0.4-1.1,0.4
			c-0.3,0-0.5-0.1-0.7-0.3c-0.2-0.2-0.3-0.5-0.3-0.8c0-0.3,0.1-0.5,0.2-0.8c0.2-0.2,0.4-0.4,0.8-0.6c0.7-0.4,1.4-0.7,2.3-0.9
			c0.9-0.2,1.8-0.3,2.6-0.3C321.9,162.6,323.3,163,324.2,164z M321.7,173.8c0.7-0.7,1-1.6,1-2.8v-0.7h-0.5c-1.5,0-2.6,0.1-3.4,0.2
			c-0.8,0.1-1.4,0.4-1.7,0.7c-0.3,0.3-0.5,0.8-0.5,1.4c0,0.7,0.2,1.2,0.7,1.7c0.5,0.4,1.1,0.7,1.9,0.7
			C320.2,174.9,321.1,174.5,321.7,173.8z"/>
		<path class="st6" d="M340.2,163.5c0.9,0.6,1.7,1.4,2.2,2.5c0.5,1.1,0.8,2.4,0.8,3.8c0,1.4-0.3,2.7-0.8,3.8c-0.5,1.1-1.3,2-2.2,2.6
			c-0.9,0.6-2,0.9-3.2,0.9c-1,0-2-0.2-2.8-0.7c-0.8-0.4-1.4-1.1-1.8-1.9v1.1c0,0.4-0.1,0.8-0.4,1c-0.3,0.3-0.6,0.4-1,0.4
			c-0.4,0-0.8-0.1-1.1-0.4c-0.3-0.3-0.4-0.6-0.4-1v-17.6c0-0.4,0.1-0.8,0.4-1c0.3-0.2,0.6-0.4,1.1-0.4c0.4,0,0.8,0.1,1,0.4
			s0.4,0.6,0.4,1v7.3c0.4-0.8,1-1.5,1.8-1.9c0.8-0.5,1.7-0.7,2.8-0.7C338.2,162.6,339.2,162.9,340.2,163.5z M339.2,173.4
			c0.7-0.9,1-2.1,1-3.7c0-1.6-0.3-2.8-1-3.6c-0.7-0.8-1.7-1.3-2.9-1.3c-1.3,0-2.2,0.4-2.9,1.3c-0.7,0.9-1,2.1-1,3.7
			c0,1.6,0.3,2.8,1,3.7c0.7,0.9,1.6,1.3,2.9,1.3C337.5,174.8,338.5,174.3,339.2,173.4z"/>
		<path class="st6" d="M346.7,176.6c-0.3-0.2-0.4-0.6-0.4-1V158c0-0.5,0.1-0.8,0.4-1c0.3-0.2,0.6-0.4,1-0.4c0.4,0,0.8,0.1,1,0.4
			c0.3,0.2,0.4,0.6,0.4,1v17.6c0,0.5-0.1,0.8-0.4,1c-0.3,0.2-0.6,0.3-1,0.3C347.4,177,347,176.9,346.7,176.6z"/>
		<path class="st6" d="M364.8,173.6c0.2,0.2,0.3,0.5,0.3,0.8c0,0.6-0.3,1-1,1.4c-0.7,0.4-1.4,0.7-2.2,0.9c-0.8,0.2-1.5,0.3-2.3,0.3
			c-2.2,0-3.9-0.6-5.2-1.9c-1.3-1.3-1.9-3-1.9-5.3c0-1.4,0.3-2.7,0.8-3.8c0.6-1.1,1.4-2,2.4-2.6c1-0.6,2.2-0.9,3.5-0.9
			c1.9,0,3.3,0.6,4.4,1.8c1.1,1.2,1.6,2.8,1.6,4.9c0,0.8-0.3,1.1-1,1.1h-8.8c0.2,3,1.6,4.4,4.3,4.4c0.7,0,1.3-0.1,1.8-0.3
			c0.5-0.2,1.1-0.4,1.6-0.7c0.1,0,0.2-0.1,0.5-0.2c0.3-0.1,0.5-0.2,0.6-0.2C364.4,173.3,364.6,173.4,364.8,173.6z M356.5,165.7
			c-0.7,0.7-1.1,1.7-1.2,3h7.4c-0.1-1.3-0.4-2.3-1-3c-0.6-0.7-1.4-1-2.5-1C358.1,164.7,357.2,165,356.5,165.7z"/>
		<path class="st6" d="M385.9,164c0.9,0.9,1.4,2.4,1.4,4.3v7.4c0,0.4-0.1,0.8-0.4,1c-0.2,0.2-0.6,0.4-1,0.4c-0.4,0-0.8-0.1-1-0.4
			c-0.2-0.2-0.4-0.6-0.4-1v-1.1c-0.4,0.8-0.9,1.4-1.6,1.8c-0.7,0.4-1.5,0.6-2.5,0.6c-0.9,0-1.8-0.2-2.5-0.6
			c-0.8-0.4-1.4-0.9-1.8-1.6c-0.4-0.7-0.6-1.4-0.6-2.2c0-1,0.3-1.8,0.8-2.4c0.5-0.6,1.4-1,2.6-1.2c1.2-0.2,2.9-0.4,5-0.4h0.7v-0.8
			c0-1.1-0.2-1.8-0.7-2.3s-1.1-0.7-2.1-0.7c-0.7,0-1.3,0.1-1.9,0.3c-0.6,0.2-1.2,0.4-1.9,0.7c-0.5,0.3-0.9,0.4-1.1,0.4
			c-0.3,0-0.5-0.1-0.7-0.3c-0.2-0.2-0.3-0.5-0.3-0.8c0-0.3,0.1-0.5,0.2-0.8c0.2-0.2,0.4-0.4,0.8-0.6c0.7-0.4,1.4-0.7,2.3-0.9
			c0.9-0.2,1.8-0.3,2.6-0.3C383.6,162.6,384.9,163,385.9,164z M383.4,173.8c0.7-0.7,1-1.6,1-2.8v-0.7h-0.5c-1.5,0-2.6,0.1-3.4,0.2
			c-0.8,0.1-1.4,0.4-1.7,0.7c-0.3,0.3-0.5,0.8-0.5,1.4c0,0.7,0.2,1.2,0.7,1.7c0.5,0.4,1.1,0.7,1.9,0.7
			C381.9,174.9,382.7,174.5,383.4,173.8z"/>
		<path class="st6" d="M403.7,168.2v7.4c0,0.4-0.1,0.8-0.4,1c-0.3,0.2-0.6,0.4-1.1,0.4c-0.4,0-0.8-0.1-1-0.4c-0.3-0.2-0.4-0.6-0.4-1
			v-7.3c0-1.2-0.2-2-0.7-2.6c-0.5-0.6-1.2-0.8-2.2-0.8c-1.2,0-2.1,0.4-2.8,1.1c-0.7,0.7-1.1,1.7-1.1,2.9v6.7c0,0.4-0.1,0.8-0.4,1
			c-0.3,0.2-0.6,0.4-1,0.4c-0.4,0-0.8-0.1-1.1-0.4c-0.3-0.2-0.4-0.6-0.4-1V164c0-0.4,0.1-0.7,0.4-1c0.3-0.3,0.6-0.4,1-0.4
			c0.4,0,0.8,0.1,1,0.4c0.2,0.2,0.4,0.6,0.4,1v1.2c0.5-0.8,1.1-1.5,1.9-1.9c0.8-0.4,1.7-0.7,2.8-0.7
			C402,162.6,403.7,164.4,403.7,168.2z"/>
		<path class="st6" d="M420,156.9c0.3,0.2,0.4,0.6,0.4,1v17.6c0,0.4-0.1,0.8-0.4,1c-0.3,0.2-0.6,0.4-1,0.4c-0.4,0-0.8-0.1-1-0.4
			c-0.3-0.2-0.4-0.6-0.4-1v-1.1c-0.4,0.8-1,1.5-1.8,1.9c-0.8,0.4-1.7,0.7-2.8,0.7c-1.2,0-2.3-0.3-3.2-0.9c-0.9-0.6-1.7-1.5-2.2-2.6
			c-0.5-1.1-0.8-2.4-0.8-3.8c0-1.4,0.3-2.7,0.8-3.8c0.5-1.1,1.3-1.9,2.2-2.5c0.9-0.6,2-0.9,3.2-0.9c1,0,2,0.2,2.8,0.7
			c0.8,0.4,1.4,1.1,1.8,1.9v-7.3c0-0.4,0.1-0.7,0.4-1c0.3-0.2,0.6-0.4,1-0.4C419.4,156.6,419.8,156.7,420,156.9z M416.6,173.5
			c0.7-0.9,1-2.1,1-3.7c0-1.6-0.3-2.8-1-3.7c-0.7-0.9-1.6-1.3-2.9-1.3c-1.3,0-2.2,0.4-2.9,1.3c-0.7,0.8-1,2.1-1,3.6s0.4,2.8,1.1,3.7
			c0.7,0.9,1.7,1.3,2.9,1.3C414.9,174.8,415.9,174.3,416.6,173.5z"/>
		<path class="st6" d="M437.6,176.6c-0.3-0.3-0.4-0.6-0.4-1.1v-16.3h-5.7c-0.9,0-1.4-0.4-1.4-1.2c0-0.4,0.1-0.7,0.4-0.9
			c0.2-0.2,0.6-0.3,1-0.3h14.4c0.4,0,0.8,0.1,1,0.3c0.2,0.2,0.4,0.5,0.4,0.9c0,0.8-0.5,1.2-1.4,1.2h-5.7v16.3c0,0.4-0.1,0.8-0.4,1.1
			c-0.3,0.3-0.6,0.4-1.1,0.4C438.2,177,437.8,176.8,437.6,176.6z"/>
		<path class="st6" d="M458.6,173.6c0.2,0.2,0.3,0.5,0.3,0.8c0,0.6-0.3,1-1,1.4c-0.7,0.4-1.4,0.7-2.2,0.9c-0.8,0.2-1.5,0.3-2.3,0.3
			c-2.2,0-3.9-0.6-5.2-1.9c-1.3-1.3-1.9-3-1.9-5.3c0-1.4,0.3-2.7,0.8-3.8c0.6-1.1,1.4-2,2.4-2.6c1-0.6,2.2-0.9,3.5-0.9
			c1.9,0,3.3,0.6,4.4,1.8c1.1,1.2,1.6,2.8,1.6,4.9c0,0.8-0.3,1.1-1,1.1h-8.8c0.2,3,1.6,4.4,4.3,4.4c0.7,0,1.3-0.1,1.8-0.3
			c0.5-0.2,1.1-0.4,1.6-0.7c0.1,0,0.2-0.1,0.5-0.2c0.3-0.1,0.5-0.2,0.6-0.2C458.2,173.3,458.5,173.4,458.6,173.6z M450.4,165.7
			c-0.7,0.7-1.1,1.7-1.2,3h7.4c-0.1-1.3-0.4-2.3-1-3c-0.6-0.7-1.4-1-2.5-1C451.9,164.7,451,165,450.4,165.7z"/>
		<path class="st6" d="M482.8,168.2v7.4c0,0.4-0.1,0.8-0.4,1c-0.3,0.2-0.6,0.4-1.1,0.4c-0.4,0-0.8-0.1-1-0.4c-0.3-0.2-0.4-0.6-0.4-1
			v-7.4c0-1.2-0.2-2-0.6-2.5c-0.4-0.5-1.1-0.8-2-0.8c-1,0-1.9,0.4-2.5,1.1c-0.6,0.7-0.9,1.7-0.9,2.9v6.7c0,0.4-0.1,0.8-0.4,1
			c-0.3,0.2-0.6,0.4-1.1,0.4c-0.4,0-0.8-0.1-1-0.4c-0.3-0.2-0.4-0.6-0.4-1v-7.4c0-1.2-0.2-2-0.6-2.5c-0.4-0.5-1.1-0.8-2-0.8
			c-1,0-1.9,0.4-2.5,1.1c-0.6,0.7-0.9,1.7-0.9,2.9v6.7c0,0.4-0.1,0.8-0.4,1c-0.3,0.2-0.6,0.4-1,0.4c-0.4,0-0.8-0.1-1-0.4
			c-0.3-0.2-0.4-0.6-0.4-1V164c0-0.4,0.1-0.8,0.4-1c0.3-0.2,0.6-0.4,1-0.4c0.4,0,0.7,0.1,1,0.4c0.3,0.2,0.4,0.6,0.4,1v1.1
			c0.4-0.8,1-1.4,1.7-1.8c0.7-0.4,1.6-0.6,2.6-0.6c1.1,0,1.9,0.2,2.6,0.7c0.7,0.4,1.2,1.1,1.6,2c0.4-0.8,1-1.5,1.9-2
			c0.8-0.5,1.8-0.7,2.8-0.7C481.3,162.6,482.8,164.4,482.8,168.2z"/>
		<path class="st6" d="M497.5,163.5c0.9,0.6,1.7,1.5,2.2,2.6c0.5,1.1,0.8,2.4,0.8,3.8c0,1.4-0.3,2.7-0.8,3.8
			c-0.5,1.1-1.2,1.9-2.2,2.5c-0.9,0.6-2,0.9-3.2,0.9c-1,0-2-0.2-2.8-0.7c-0.8-0.4-1.4-1.1-1.8-1.9v6.4c0,0.4-0.1,0.7-0.4,1
			s-0.6,0.4-1,0.4c-0.4,0-0.8-0.1-1.1-0.4c-0.3-0.2-0.4-0.6-0.4-1V164c0-0.4,0.1-0.8,0.4-1c0.3-0.3,0.6-0.4,1.1-0.4
			c0.4,0,0.8,0.1,1,0.4c0.3,0.3,0.4,0.6,0.4,1v1.2c0.4-0.8,1-1.5,1.8-1.9c0.8-0.5,1.7-0.7,2.8-0.7
			C495.5,162.6,496.5,162.9,497.5,163.5z M496.5,173.5c0.7-0.8,1-2.1,1-3.6c0-1.6-0.3-2.8-1-3.7c-0.7-0.9-1.7-1.3-2.9-1.3
			c-1.3,0-2.2,0.4-2.9,1.3s-1,2.1-1,3.7c0,1.6,0.3,2.8,1,3.7c0.7,0.9,1.6,1.3,2.9,1.3C494.8,174.8,495.8,174.3,496.5,173.5z"/>
		<path class="st6" d="M506.1,176.2c-1-0.6-1.8-1.4-2.4-2.5s-0.8-2.4-0.8-3.8c0-1.5,0.3-2.7,0.8-3.8s1.4-1.9,2.4-2.5
			c1-0.6,2.2-0.9,3.6-0.9s2.6,0.3,3.6,0.9s1.8,1.4,2.4,2.5c0.6,1.1,0.8,2.4,0.8,3.8c0,1.4-0.3,2.7-0.8,3.8c-0.6,1.1-1.4,1.9-2.4,2.5
			c-1,0.6-2.2,0.9-3.6,0.9S507.1,176.7,506.1,176.2z M512.6,173.5c0.7-0.8,1-2.1,1-3.7c0-1.6-0.3-2.8-1-3.7
			c-0.7-0.8-1.7-1.3-2.9-1.3c-1.3,0-2.2,0.4-2.9,1.3c-0.7,0.8-1,2.1-1,3.7c0,1.6,0.3,2.8,1,3.7c0.7,0.8,1.7,1.3,2.9,1.3
			C511,174.8,512,174.3,512.6,173.5z"/>
		<path class="st6" d="M528.4,163.8c0,0.4-0.1,0.7-0.3,0.9c-0.2,0.2-0.6,0.3-1.1,0.4l-0.9,0.1c-1.2,0.1-2.1,0.5-2.7,1.3
			c-0.6,0.7-0.9,1.6-0.9,2.6v6.5c0,0.5-0.1,0.8-0.4,1c-0.3,0.2-0.6,0.3-1,0.3c-0.4,0-0.8-0.1-1-0.3c-0.3-0.2-0.4-0.6-0.4-1V164
			c0-0.4,0.1-0.8,0.4-1c0.3-0.2,0.6-0.4,1-0.4c0.4,0,0.7,0.1,1,0.4c0.3,0.2,0.4,0.6,0.4,1v1.4c0.4-0.8,0.9-1.5,1.7-1.9
			c0.7-0.4,1.5-0.7,2.5-0.8l0.4,0C528,162.6,528.4,163,528.4,163.8z"/>
		<path class="st6" d="M540.1,164c0.9,0.9,1.4,2.4,1.4,4.3v7.4c0,0.4-0.1,0.8-0.4,1c-0.2,0.2-0.6,0.4-1,0.4c-0.4,0-0.8-0.1-1-0.4
			c-0.2-0.2-0.4-0.6-0.4-1v-1.1c-0.4,0.8-0.9,1.4-1.6,1.8c-0.7,0.4-1.5,0.6-2.5,0.6c-0.9,0-1.8-0.2-2.5-0.6
			c-0.8-0.4-1.4-0.9-1.8-1.6c-0.4-0.7-0.6-1.4-0.6-2.2c0-1,0.3-1.8,0.8-2.4c0.5-0.6,1.4-1,2.6-1.2c1.2-0.2,2.9-0.4,5-0.4h0.7v-0.8
			c0-1.1-0.2-1.8-0.7-2.3c-0.4-0.5-1.1-0.7-2.1-0.7c-0.7,0-1.3,0.1-1.9,0.3c-0.6,0.2-1.2,0.4-1.9,0.7c-0.5,0.3-0.9,0.4-1.1,0.4
			c-0.3,0-0.5-0.1-0.7-0.3c-0.2-0.2-0.3-0.5-0.3-0.8c0-0.3,0.1-0.5,0.2-0.8c0.2-0.2,0.4-0.4,0.8-0.6c0.7-0.4,1.4-0.7,2.3-0.9
			c0.9-0.2,1.8-0.3,2.6-0.3C537.8,162.6,539.2,163,540.1,164z M537.7,173.8c0.7-0.7,1-1.6,1-2.8v-0.7h-0.5c-1.5,0-2.6,0.1-3.4,0.2
			c-0.8,0.1-1.4,0.4-1.7,0.7c-0.3,0.3-0.5,0.8-0.5,1.4c0,0.7,0.2,1.2,0.7,1.7c0.5,0.4,1.1,0.7,1.9,0.7
			C536.1,174.9,537,174.5,537.7,173.8z"/>
		<path class="st6" d="M554.1,163.8c0,0.4-0.1,0.7-0.3,0.9c-0.2,0.2-0.6,0.3-1.1,0.4l-0.9,0.1c-1.2,0.1-2.1,0.5-2.7,1.3
			c-0.6,0.7-0.9,1.6-0.9,2.6v6.5c0,0.5-0.1,0.8-0.4,1c-0.3,0.2-0.6,0.3-1,0.3c-0.4,0-0.8-0.1-1-0.3c-0.3-0.2-0.4-0.6-0.4-1V164
			c0-0.4,0.1-0.8,0.4-1c0.3-0.2,0.6-0.4,1-0.4c0.4,0,0.7,0.1,1,0.4c0.3,0.2,0.4,0.6,0.4,1v1.4c0.4-0.8,0.9-1.5,1.7-1.9
			c0.7-0.4,1.5-0.7,2.5-0.8l0.4,0C553.6,162.6,554.1,163,554.1,163.8z"/>
		<path class="st6" d="M567.1,162.9c0.2-0.1,0.5-0.2,0.7-0.2c0.4,0,0.7,0.1,1,0.4c0.3,0.2,0.4,0.5,0.4,0.9c0,0.2,0,0.4-0.1,0.5
			l-7.9,16.8c-0.1,0.3-0.3,0.5-0.5,0.6c-0.2,0.1-0.5,0.2-0.7,0.2c-0.3,0-0.7-0.1-0.9-0.3c-0.3-0.2-0.4-0.5-0.4-0.9
			c0-0.2,0-0.3,0.1-0.6l2-4.2l-5.5-11.7c-0.1-0.2-0.1-0.3-0.1-0.5c0-0.4,0.2-0.7,0.5-0.9c0.3-0.2,0.6-0.4,1-0.4c0.6,0,1,0.3,1.2,0.8
			l4.4,9.8l4.4-9.8C566.7,163.2,566.9,163,567.1,162.9z"/>
		<path class="st6" d="M579.8,176.5c-0.3-0.3-0.4-0.6-0.4-1v-17.3c0-0.4,0.1-0.8,0.4-1c0.3-0.3,0.6-0.4,1.1-0.4h10.5
			c0.4,0,0.8,0.1,1,0.3c0.2,0.2,0.4,0.5,0.4,0.9s-0.1,0.7-0.4,0.9c-0.2,0.2-0.6,0.3-1,0.3h-9.1v6.3h8.5c0.4,0,0.8,0.1,1,0.3
			c0.2,0.2,0.4,0.5,0.4,0.9c0,0.4-0.1,0.7-0.4,0.9c-0.2,0.2-0.6,0.3-1,0.3h-8.5v6.7h9.1c0.9,0,1.4,0.4,1.4,1.2
			c0,0.4-0.1,0.7-0.4,0.9c-0.2,0.2-0.6,0.3-1,0.3h-10.5C580.4,176.8,580.1,176.7,579.8,176.5z"/>
		<path class="st6" d="M616.4,168.2v7.4c0,0.4-0.1,0.8-0.4,1c-0.3,0.2-0.6,0.4-1.1,0.4c-0.4,0-0.8-0.1-1-0.4c-0.3-0.2-0.4-0.6-0.4-1
			v-7.4c0-1.2-0.2-2-0.6-2.5c-0.4-0.5-1.1-0.8-2-0.8c-1,0-1.9,0.4-2.5,1.1c-0.6,0.7-0.9,1.7-0.9,2.9v6.7c0,0.4-0.1,0.8-0.4,1
			c-0.3,0.2-0.6,0.4-1.1,0.4c-0.4,0-0.8-0.1-1-0.4c-0.3-0.2-0.4-0.6-0.4-1v-7.4c0-1.2-0.2-2-0.6-2.5c-0.4-0.5-1.1-0.8-2-0.8
			c-1,0-1.9,0.4-2.5,1.1s-0.9,1.7-0.9,2.9v6.7c0,0.4-0.1,0.8-0.4,1c-0.3,0.2-0.6,0.4-1,0.4c-0.4,0-0.8-0.1-1-0.4
			c-0.3-0.2-0.4-0.6-0.4-1V164c0-0.4,0.1-0.8,0.4-1c0.3-0.2,0.6-0.4,1-0.4c0.4,0,0.7,0.1,1,0.4c0.3,0.2,0.4,0.6,0.4,1v1.1
			c0.4-0.8,1-1.4,1.7-1.8c0.7-0.4,1.6-0.6,2.6-0.6c1.1,0,1.9,0.2,2.6,0.7c0.7,0.4,1.2,1.1,1.6,2c0.4-0.8,1-1.5,1.9-2
			c0.8-0.5,1.8-0.7,2.8-0.7C614.9,162.6,616.4,164.4,616.4,168.2z"/>
		<path class="st6" d="M630.4,164c0.9,0.9,1.4,2.4,1.4,4.3v7.4c0,0.4-0.1,0.8-0.4,1c-0.2,0.2-0.6,0.4-1,0.4c-0.4,0-0.8-0.1-1-0.4
			c-0.2-0.2-0.4-0.6-0.4-1v-1.1c-0.4,0.8-0.9,1.4-1.6,1.8c-0.7,0.4-1.5,0.6-2.5,0.6c-0.9,0-1.8-0.2-2.5-0.6
			c-0.8-0.4-1.4-0.9-1.8-1.6c-0.4-0.7-0.6-1.4-0.6-2.2c0-1,0.3-1.8,0.8-2.4c0.5-0.6,1.4-1,2.6-1.2c1.2-0.2,2.9-0.4,5-0.4h0.7v-0.8
			c0-1.1-0.2-1.8-0.7-2.3s-1.1-0.7-2.1-0.7c-0.7,0-1.3,0.1-1.9,0.3c-0.6,0.2-1.2,0.4-1.9,0.7c-0.5,0.3-0.9,0.4-1.1,0.4
			c-0.3,0-0.5-0.1-0.7-0.3c-0.2-0.2-0.3-0.5-0.3-0.8c0-0.3,0.1-0.5,0.2-0.8c0.2-0.2,0.4-0.4,0.8-0.6c0.7-0.4,1.4-0.7,2.3-0.9
			c0.9-0.2,1.8-0.3,2.6-0.3C628.1,162.6,629.5,163,630.4,164z M627.9,173.8c0.7-0.7,1-1.6,1-2.8v-0.7h-0.5c-1.5,0-2.6,0.1-3.4,0.2
			c-0.8,0.1-1.4,0.4-1.7,0.7c-0.3,0.3-0.5,0.8-0.5,1.4c0,0.7,0.2,1.2,0.7,1.7c0.5,0.4,1.1,0.7,1.9,0.7
			C626.4,174.9,627.3,174.5,627.9,173.8z"/>
		<path class="st6" d="M635.8,159.4c-0.3-0.3-0.5-0.7-0.5-1.2s0.2-0.9,0.5-1.2c0.3-0.3,0.8-0.4,1.3-0.4c0.5,0,1,0.1,1.3,0.4
			s0.5,0.7,0.5,1.2s-0.2,0.9-0.5,1.2c-0.3,0.3-0.8,0.5-1.3,0.5C636.6,159.8,636.1,159.7,635.8,159.4z M636.1,176.6
			c-0.3-0.2-0.4-0.6-0.4-1V164c0-0.5,0.1-0.8,0.4-1c0.3-0.2,0.6-0.4,1-0.4c0.4,0,0.8,0.1,1,0.4c0.3,0.2,0.4,0.6,0.4,1v11.6
			c0,0.5-0.1,0.8-0.4,1c-0.3,0.2-0.6,0.3-1,0.3C636.7,177,636.4,176.9,636.1,176.6z"/>
		<path class="st6" d="M643,176.6c-0.3-0.2-0.4-0.6-0.4-1V158c0-0.5,0.1-0.8,0.4-1c0.3-0.2,0.6-0.4,1-0.4c0.4,0,0.8,0.1,1,0.4
			c0.3,0.2,0.4,0.6,0.4,1v17.6c0,0.5-0.1,0.8-0.4,1c-0.3,0.2-0.6,0.3-1,0.3C643.6,177,643.3,176.9,643,176.6z"/>
		<path class="st6" d="M675.3,175.7c0,0.4-0.1,0.7-0.4,0.9c-0.3,0.2-0.6,0.4-1,0.4c-0.2,0-0.5-0.1-0.7-0.2c-0.2-0.1-0.4-0.3-0.5-0.6
			l-1.9-4.3h-10.4l-1.9,4.3c-0.1,0.3-0.3,0.5-0.5,0.6c-0.2,0.1-0.5,0.2-0.7,0.2c-0.4,0-0.7-0.1-1-0.4c-0.3-0.2-0.4-0.6-0.4-0.9
			c0-0.2,0-0.3,0.1-0.6l8.1-17.6c0.1-0.3,0.3-0.5,0.6-0.7c0.3-0.2,0.6-0.3,0.9-0.3c0.3,0,0.6,0.1,0.9,0.3c0.3,0.2,0.5,0.4,0.6,0.7
			l8.1,17.6C675.2,175.4,675.3,175.5,675.3,175.7z M661.4,169.5h8.4l-4.2-9.4L661.4,169.5z"/>
		<path class="st6" d="M690.4,156.9c0.3,0.2,0.4,0.6,0.4,1v17.6c0,0.4-0.1,0.8-0.4,1c-0.3,0.2-0.6,0.4-1,0.4c-0.4,0-0.8-0.1-1-0.4
			c-0.3-0.2-0.4-0.6-0.4-1v-1.1c-0.4,0.8-1,1.5-1.8,1.9c-0.8,0.4-1.7,0.7-2.8,0.7c-1.2,0-2.3-0.3-3.2-0.9c-0.9-0.6-1.7-1.5-2.2-2.6
			c-0.5-1.1-0.8-2.4-0.8-3.8c0-1.4,0.3-2.7,0.8-3.8c0.5-1.1,1.3-1.9,2.2-2.5c0.9-0.6,2-0.9,3.2-0.9c1,0,2,0.2,2.8,0.7
			c0.8,0.4,1.4,1.1,1.8,1.9v-7.3c0-0.4,0.1-0.7,0.4-1c0.3-0.2,0.6-0.4,1-0.4C689.8,156.6,690.1,156.7,690.4,156.9z M686.9,173.5
			c0.7-0.9,1-2.1,1-3.7c0-1.6-0.3-2.8-1-3.7c-0.7-0.9-1.6-1.3-2.9-1.3c-1.3,0-2.2,0.4-2.9,1.3c-0.7,0.8-1,2.1-1,3.6s0.4,2.8,1.1,3.7
			c0.7,0.9,1.7,1.3,2.9,1.3C685.3,174.8,686.2,174.3,686.9,173.5z"/>
		<path class="st6" d="M707.3,156.9c0.3,0.2,0.4,0.6,0.4,1v17.6c0,0.4-0.1,0.8-0.4,1c-0.3,0.2-0.6,0.4-1,0.4c-0.4,0-0.8-0.1-1-0.4
			c-0.3-0.2-0.4-0.6-0.4-1v-1.1c-0.4,0.8-1,1.5-1.8,1.9c-0.8,0.4-1.7,0.7-2.8,0.7c-1.2,0-2.3-0.3-3.2-0.9c-0.9-0.6-1.7-1.5-2.2-2.6
			c-0.5-1.1-0.8-2.4-0.8-3.8c0-1.4,0.3-2.7,0.8-3.8c0.5-1.1,1.3-1.9,2.2-2.5c0.9-0.6,2-0.9,3.2-0.9c1,0,2,0.2,2.8,0.7
			c0.8,0.4,1.4,1.1,1.8,1.9v-7.3c0-0.4,0.1-0.7,0.4-1c0.3-0.2,0.6-0.4,1-0.4C706.7,156.6,707,156.7,707.3,156.9z M703.8,173.5
			c0.7-0.9,1-2.1,1-3.7c0-1.6-0.3-2.8-1-3.7c-0.7-0.9-1.6-1.3-2.9-1.3c-1.3,0-2.2,0.4-2.9,1.3c-0.7,0.8-1,2.1-1,3.6s0.4,2.8,1.1,3.7
			c0.7,0.9,1.7,1.3,2.9,1.3C702.2,174.8,703.1,174.3,703.8,173.5z"/>
		<path class="st6" d="M720.4,163.8c0,0.4-0.1,0.7-0.3,0.9c-0.2,0.2-0.6,0.3-1.1,0.4l-0.9,0.1c-1.2,0.1-2.1,0.5-2.7,1.3
			c-0.6,0.7-0.9,1.6-0.9,2.6v6.5c0,0.5-0.1,0.8-0.4,1c-0.3,0.2-0.6,0.3-1,0.3c-0.4,0-0.8-0.1-1-0.3c-0.3-0.2-0.4-0.6-0.4-1V164
			c0-0.4,0.1-0.8,0.4-1c0.3-0.2,0.6-0.4,1-0.4c0.4,0,0.7,0.1,1,0.4c0.3,0.2,0.4,0.6,0.4,1v1.4c0.4-0.8,0.9-1.5,1.7-1.9
			c0.7-0.4,1.5-0.7,2.5-0.8l0.4,0C719.9,162.6,720.4,163,720.4,163.8z"/>
		<path class="st6" d="M733.4,173.6c0.2,0.2,0.3,0.5,0.3,0.8c0,0.6-0.3,1-1,1.4c-0.7,0.4-1.4,0.7-2.2,0.9c-0.8,0.2-1.5,0.3-2.3,0.3
			c-2.2,0-3.9-0.6-5.2-1.9c-1.3-1.3-1.9-3-1.9-5.3c0-1.4,0.3-2.7,0.8-3.8c0.6-1.1,1.4-2,2.4-2.6c1-0.6,2.2-0.9,3.5-0.9
			c1.9,0,3.3,0.6,4.4,1.8c1.1,1.2,1.6,2.8,1.6,4.9c0,0.8-0.3,1.1-1,1.1H724c0.2,3,1.6,4.4,4.3,4.4c0.7,0,1.3-0.1,1.8-0.3
			c0.5-0.2,1.1-0.4,1.6-0.7c0.1,0,0.2-0.1,0.5-0.2c0.3-0.1,0.5-0.2,0.6-0.2C733,173.3,733.3,173.4,733.4,173.6z M725.2,165.7
			c-0.7,0.7-1.1,1.7-1.2,3h7.4c-0.1-1.3-0.4-2.3-1-3c-0.6-0.7-1.4-1-2.5-1C726.7,164.7,725.8,165,725.2,165.7z"/>
		<path class="st6" d="M737.1,175.8c-0.3-0.2-0.6-0.4-0.7-0.7c-0.1-0.2-0.2-0.5-0.2-0.8c0-0.3,0.1-0.6,0.3-0.8
			c0.2-0.2,0.4-0.3,0.7-0.3c0.2,0,0.6,0.2,1.2,0.5c0.6,0.3,1.1,0.6,1.7,0.7c0.5,0.2,1.2,0.3,2,0.3c0.9,0,1.6-0.2,2.1-0.5
			c0.5-0.3,0.8-0.8,0.8-1.4c0-0.4-0.1-0.7-0.3-0.9c-0.2-0.2-0.5-0.4-1-0.6c-0.5-0.2-1.2-0.4-2.2-0.6c-1.7-0.4-2.9-0.9-3.6-1.5
			c-0.7-0.6-1.1-1.5-1.1-2.5c0-0.8,0.2-1.6,0.7-2.2c0.5-0.7,1.1-1.2,2-1.5c0.8-0.4,1.8-0.5,2.9-0.5c0.8,0,1.5,0.1,2.2,0.3
			c0.7,0.2,1.4,0.5,1.9,0.9c0.6,0.4,0.9,0.9,0.9,1.5c0,0.3-0.1,0.6-0.3,0.8c-0.2,0.2-0.4,0.3-0.6,0.3c-0.2,0-0.3,0-0.5-0.1
			c-0.2-0.1-0.4-0.2-0.7-0.4c-0.5-0.3-1-0.5-1.4-0.7c-0.4-0.2-1-0.3-1.7-0.3c-0.8,0-1.4,0.2-1.9,0.5c-0.5,0.3-0.7,0.8-0.7,1.4
			c0,0.5,0.2,0.9,0.7,1.2c0.4,0.3,1.3,0.6,2.5,0.8c1.3,0.3,2.3,0.6,3,0.9c0.7,0.3,1.2,0.8,1.6,1.3c0.3,0.5,0.5,1.1,0.5,1.9
			c0,1.2-0.5,2.2-1.6,3c-1,0.8-2.4,1.1-4.2,1.1C739.9,177,738.3,176.6,737.1,175.8z"/>
		<path class="st6" d="M750.8,175.8c-0.3-0.2-0.6-0.4-0.7-0.7c-0.1-0.2-0.2-0.5-0.2-0.8c0-0.3,0.1-0.6,0.3-0.8
			c0.2-0.2,0.4-0.3,0.7-0.3c0.2,0,0.6,0.2,1.2,0.5c0.6,0.3,1.1,0.6,1.7,0.7c0.5,0.2,1.2,0.3,2,0.3c0.9,0,1.6-0.2,2.1-0.5
			c0.5-0.3,0.8-0.8,0.8-1.4c0-0.4-0.1-0.7-0.3-0.9c-0.2-0.2-0.5-0.4-1-0.6c-0.5-0.2-1.2-0.4-2.2-0.6c-1.7-0.4-2.9-0.9-3.6-1.5
			c-0.7-0.6-1.1-1.5-1.1-2.5c0-0.8,0.2-1.6,0.7-2.2c0.5-0.7,1.1-1.2,2-1.5c0.8-0.4,1.8-0.5,2.9-0.5c0.8,0,1.5,0.1,2.2,0.3
			c0.7,0.2,1.4,0.5,1.9,0.9c0.6,0.4,0.9,0.9,0.9,1.5c0,0.3-0.1,0.6-0.3,0.8c-0.2,0.2-0.4,0.3-0.6,0.3c-0.2,0-0.3,0-0.5-0.1
			c-0.2-0.1-0.4-0.2-0.7-0.4c-0.5-0.3-1-0.5-1.4-0.7c-0.4-0.2-1-0.3-1.7-0.3c-0.8,0-1.4,0.2-1.9,0.5c-0.5,0.3-0.7,0.8-0.7,1.4
			c0,0.5,0.2,0.9,0.7,1.2c0.4,0.3,1.3,0.6,2.5,0.8c1.3,0.3,2.3,0.6,3,0.9c0.7,0.3,1.2,0.8,1.6,1.3c0.3,0.5,0.5,1.1,0.5,1.9
			c0,1.2-0.5,2.2-1.6,3c-1,0.8-2.4,1.1-4.2,1.1C753.6,177,752.1,176.6,750.8,175.8z"/>
		<path class="st6" d="M786.9,168.2c0.6,0.8,1,1.9,1,3.1c0,1.7-0.6,3.1-1.8,4c-1.2,1-2.9,1.4-5,1.4h-7.3c-0.5,0-0.8-0.1-1.1-0.4
			c-0.3-0.3-0.4-0.6-0.4-1v-17.3c0-0.4,0.1-0.8,0.4-1c0.3-0.3,0.6-0.4,1.1-0.4h7c2.1,0,3.7,0.5,4.9,1.4c1.2,0.9,1.8,2.2,1.8,3.9
			c0,1.1-0.3,2-0.8,2.8c-0.6,0.8-1.3,1.4-2.4,1.7C785.4,166.8,786.3,167.4,786.9,168.2z M775.3,165.4h5.1c2.8,0,4.2-1.1,4.2-3.2
			c0-1.1-0.3-1.9-1-2.4c-0.7-0.5-1.8-0.8-3.2-0.8h-5.1V165.4z M784,173.7c0.7-0.5,1-1.4,1-2.5c0-1.1-0.3-2-1-2.6
			c-0.7-0.6-1.8-0.8-3.2-0.8h-5.5v6.7h5.5C782.3,174.5,783.3,174.2,784,173.7z"/>
		<path class="st6" d="M791.8,176.6c-0.3-0.2-0.4-0.6-0.4-1V158c0-0.5,0.1-0.8,0.4-1c0.3-0.2,0.6-0.4,1-0.4c0.4,0,0.8,0.1,1,0.4
			c0.3,0.2,0.4,0.6,0.4,1v17.6c0,0.5-0.1,0.8-0.4,1c-0.3,0.2-0.6,0.3-1,0.3C792.4,177,792.1,176.9,791.8,176.6z"/>
		<path class="st6" d="M800.7,176.2c-1-0.6-1.8-1.4-2.4-2.5c-0.6-1.1-0.8-2.4-0.8-3.8c0-1.5,0.3-2.7,0.8-3.8
			c0.6-1.1,1.4-1.9,2.4-2.5c1-0.6,2.2-0.9,3.6-0.9c1.4,0,2.6,0.3,3.6,0.9c1,0.6,1.8,1.4,2.4,2.5c0.6,1.1,0.8,2.4,0.8,3.8
			c0,1.4-0.3,2.7-0.8,3.8c-0.6,1.1-1.4,1.9-2.4,2.5c-1,0.6-2.2,0.9-3.6,0.9C803,177,801.8,176.7,800.7,176.2z M807.3,173.5
			c0.7-0.8,1-2.1,1-3.7c0-1.6-0.3-2.8-1-3.7c-0.7-0.8-1.7-1.3-2.9-1.3c-1.3,0-2.2,0.4-2.9,1.3c-0.7,0.8-1,2.1-1,3.7
			c0,1.6,0.3,2.8,1,3.7c0.7,0.8,1.7,1.3,2.9,1.3C805.6,174.8,806.6,174.3,807.3,173.5z"/>
		<path class="st6" d="M816.8,176.2c-1-0.6-1.8-1.4-2.4-2.5c-0.6-1.1-0.8-2.3-0.8-3.8c0-1.4,0.3-2.7,0.9-3.8c0.6-1.1,1.4-2,2.4-2.6
			c1-0.6,2.2-0.9,3.6-0.9c0.7,0,1.5,0.1,2.2,0.3c0.7,0.2,1.4,0.5,2,0.9c0.6,0.4,0.9,0.9,0.9,1.5c0,0.3-0.1,0.6-0.3,0.8
			c-0.2,0.2-0.4,0.3-0.7,0.3c-0.2,0-0.3,0-0.5-0.1c-0.2-0.1-0.4-0.2-0.7-0.4c-0.5-0.3-0.9-0.5-1.3-0.7c-0.4-0.2-0.9-0.2-1.5-0.2
			c-1.3,0-2.3,0.4-3,1.3c-0.7,0.9-1.1,2.1-1.1,3.7c0,1.6,0.4,2.8,1.1,3.6c0.7,0.8,1.7,1.3,3,1.3c0.6,0,1.1-0.1,1.5-0.3
			c0.4-0.2,0.9-0.4,1.3-0.7c0.2-0.1,0.4-0.2,0.6-0.3c0.2-0.1,0.4-0.1,0.6-0.1c0.3,0,0.5,0.1,0.7,0.3c0.2,0.2,0.3,0.5,0.3,0.8
			c0,0.3-0.1,0.5-0.2,0.7c-0.1,0.2-0.4,0.4-0.7,0.7c-0.6,0.4-1.2,0.7-2,0.9c-0.8,0.2-1.5,0.3-2.3,0.3
			C819,177,817.8,176.7,816.8,176.2z"/>
		<path class="st6" d="M840.4,175.6c0,0.4-0.1,0.7-0.4,0.9c-0.2,0.3-0.5,0.4-0.9,0.4c-0.4,0-0.7-0.1-1-0.4l-7.1-6.3v5.3
			c0,0.5-0.1,0.8-0.4,1c-0.3,0.2-0.6,0.4-1,0.4c-0.4,0-0.8-0.1-1-0.4c-0.3-0.2-0.4-0.6-0.4-1V158c0-0.5,0.1-0.8,0.4-1
			c0.3-0.2,0.6-0.4,1-0.4c0.4,0,0.8,0.1,1,0.4c0.3,0.2,0.4,0.6,0.4,1v11.2l6.5-6.1c0.3-0.3,0.6-0.4,0.9-0.4c0.4,0,0.7,0.1,0.9,0.4
			c0.3,0.3,0.4,0.6,0.4,0.9c0,0.4-0.2,0.7-0.5,1l-5.1,4.7l5.6,4.9C840.2,174.9,840.4,175.2,840.4,175.6z"/>
		<path class="st6" d="M854.3,173.6c0.2,0.2,0.3,0.5,0.3,0.8c0,0.6-0.3,1-1,1.4c-0.7,0.4-1.4,0.7-2.2,0.9c-0.8,0.2-1.5,0.3-2.3,0.3
			c-2.2,0-4-0.6-5.2-1.9c-1.3-1.3-1.9-3-1.9-5.3c0-1.4,0.3-2.7,0.8-3.8c0.6-1.1,1.4-2,2.4-2.6c1-0.6,2.2-0.9,3.5-0.9
			c1.9,0,3.3,0.6,4.4,1.8c1.1,1.2,1.6,2.8,1.6,4.9c0,0.8-0.3,1.1-1,1.1h-8.8c0.2,3,1.6,4.4,4.3,4.4c0.7,0,1.3-0.1,1.8-0.3
			c0.5-0.2,1.1-0.4,1.6-0.7c0.1,0,0.2-0.1,0.5-0.2c0.3-0.1,0.5-0.2,0.6-0.2C853.9,173.3,854.1,173.4,854.3,173.6z M846,165.7
			c-0.7,0.7-1.1,1.7-1.2,3h7.4c-0.1-1.3-0.4-2.3-1-3c-0.6-0.7-1.4-1-2.5-1C847.6,164.7,846.7,165,846,165.7z"/>
		<path class="st6" d="M866.5,163.8c0,0.4-0.1,0.7-0.3,0.9c-0.2,0.2-0.6,0.3-1.1,0.4l-0.9,0.1c-1.2,0.1-2.1,0.5-2.7,1.3
			c-0.6,0.7-0.9,1.6-0.9,2.6v6.5c0,0.5-0.1,0.8-0.4,1c-0.3,0.2-0.6,0.3-1,0.3c-0.4,0-0.8-0.1-1-0.3c-0.3-0.2-0.4-0.6-0.4-1V164
			c0-0.4,0.1-0.8,0.4-1c0.3-0.2,0.6-0.4,1-0.4c0.4,0,0.7,0.1,1,0.4c0.3,0.2,0.4,0.6,0.4,1v1.4c0.4-0.8,0.9-1.5,1.7-1.9
			c0.7-0.4,1.5-0.7,2.5-0.8l0.4,0C866,162.6,866.5,163,866.5,163.8z"/>
	</g>
</g>
</svg>
